<svg xmlns="http://www.w3.org/2000/svg" viewBox="0 0 512 512">
  <rect width="512" height="512" rx="108" fill="#2f5d50"/>
  <path fill="#f6f7f4" d="M145 154h222c19 0 34 15 34 34v172c0 19-15 34-34 34H145c-19 0-34-15-34-34V188c0-19 15-34 34-34Zm28 69a22 22 0 1 0 0 44 22 22 0 0 0 0-44Zm72 10a14 14 0 1 0 0 28h101a14 14 0 1 0 0-28H245Zm-72 74a22 22 0 1 0 0 44 22 22 0 0 0 0-44Zm72 10a14 14 0 1 0 0 28h101a14 14 0 1 0 0-28H245Z"/>
  <path fill="#d9b44a" d="m158 246 15 15 36-43 23 19-55 66-42-42 23-15Z"/>
</svg>
